<?xml version="1.0" encoding="UTF-8" standalone="no"?>
<!DOCTYPE svg PUBLIC "-//W3C//DTD SVG 1.1//EN" "http://www.w3.org/Graphics/SVG/1.1/DTD/svg11.dtd">
<svg width="100%" height="100%" viewBox="0 0 204 48" version="1.1" xmlns="http://www.w3.org/2000/svg" xmlns:xlink="http://www.w3.org/1999/xlink" xml:space="preserve" xmlns:serif="http://www.serif.com/" style="fill-rule:evenodd;clip-rule:evenodd;stroke-linecap:round;stroke-linejoin:round;stroke-miterlimit:1.5;">
    <g transform="matrix(1,0,0,1,-526.051,-227.381)">
        <g transform="matrix(4.74268,0,0,4.74268,-356.666,-549.928)">
            <path d="M189.938,166.788C190.538,166.788 191.084,166.926 191.576,167.202C192.068,167.478 192.454,167.866 192.734,168.366C193.014,168.866 193.154,169.448 193.154,170.112C193.154,170.776 193.014,171.358 192.734,171.858C192.454,172.358 192.068,172.746 191.576,173.022C191.084,173.298 190.538,173.436 189.938,173.436C189.05,173.436 188.374,173.156 187.91,172.596L187.91,173.34L186.122,173.34L186.122,164.436L187.994,164.436L187.994,167.568C188.466,167.048 189.114,166.788 189.938,166.788ZM189.614,171.9C190.094,171.9 190.488,171.738 190.796,171.414C191.104,171.09 191.258,170.656 191.258,170.112C191.258,169.568 191.104,169.134 190.796,168.81C190.488,168.486 190.094,168.324 189.614,168.324C189.134,168.324 188.74,168.486 188.432,168.81C188.124,169.134 187.97,169.568 187.97,170.112C187.97,170.656 188.124,171.09 188.432,171.414C188.74,171.738 189.134,171.9 189.614,171.9Z" style="fill:rgb(0,132,139);fill-rule:nonzero;"/>
            <path d="M205.382,173.436C204.694,173.436 204.076,173.294 203.528,173.01C202.98,172.726 202.552,172.332 202.244,171.828C201.936,171.324 201.782,170.752 201.782,170.112C201.782,169.472 201.936,168.9 202.244,168.396C202.552,167.892 202.98,167.498 203.528,167.214C204.076,166.93 204.694,166.788 205.382,166.788C206.062,166.788 206.656,166.93 207.164,167.214C207.672,167.498 208.042,167.904 208.274,168.432L206.822,169.212C206.486,168.62 206.002,168.324 205.37,168.324C204.882,168.324 204.478,168.484 204.158,168.804C203.838,169.124 203.678,169.56 203.678,170.112C203.678,170.664 203.838,171.1 204.158,171.42C204.478,171.74 204.882,171.9 205.37,171.9C206.01,171.9 206.494,171.604 206.822,171.012L208.274,171.804C208.042,172.316 207.672,172.716 207.164,173.004C206.656,173.292 206.062,173.436 205.382,173.436Z" style="fill:rgb(0,132,139);fill-rule:nonzero;"/>
            <path d="M211.526,173.436C210.99,173.436 210.466,173.37 209.954,173.238C209.442,173.106 209.034,172.94 208.73,172.74L209.354,171.396C209.642,171.58 209.99,171.73 210.398,171.846C210.806,171.962 211.206,172.02 211.598,172.02C212.39,172.02 212.786,171.824 212.786,171.432C212.786,171.248 212.678,171.116 212.462,171.036C212.246,170.956 211.914,170.888 211.466,170.832C210.938,170.752 210.502,170.66 210.158,170.556C209.814,170.452 209.516,170.268 209.264,170.004C209.012,169.74 208.886,169.364 208.886,168.876C208.886,168.468 209.004,168.106 209.24,167.79C209.476,167.474 209.82,167.228 210.272,167.052C210.724,166.876 211.258,166.788 211.874,166.788C212.33,166.788 212.784,166.838 213.236,166.938C213.688,167.038 214.062,167.176 214.358,167.352L213.734,168.684C213.166,168.364 212.546,168.204 211.874,168.204C211.474,168.204 211.174,168.26 210.974,168.372C210.774,168.484 210.674,168.628 210.674,168.804C210.674,169.004 210.782,169.144 210.998,169.224C211.214,169.304 211.558,169.38 212.03,169.452C212.558,169.54 212.99,169.634 213.326,169.734C213.662,169.834 213.954,170.016 214.202,170.28C214.45,170.544 214.574,170.912 214.574,171.384C214.574,171.784 214.454,172.14 214.214,172.452C213.974,172.764 213.624,173.006 213.164,173.178C212.704,173.35 212.158,173.436 211.526,173.436Z" style="fill:rgb(0,132,139);fill-rule:nonzero;"/>
            <path d="M216.434,173.436C216.106,173.436 215.83,173.324 215.606,173.1C215.382,172.876 215.27,172.596 215.27,172.26C215.27,171.916 215.382,171.638 215.606,171.426C215.83,171.214 216.106,171.108 216.434,171.108C216.762,171.108 217.038,171.214 217.262,171.426C217.486,171.638 217.598,171.916 217.598,172.26C217.598,172.596 217.486,172.876 217.262,173.1C217.038,173.324 216.762,173.436 216.434,173.436Z" style="fill:rgb(0,132,139);fill-rule:nonzero;"/>
            <path d="M218.87,166.884L220.742,166.884L220.742,173.34L218.87,173.34L218.87,166.884ZM219.806,165.984C219.462,165.984 219.182,165.884 218.966,165.684C218.75,165.484 218.642,165.236 218.642,164.94C218.642,164.644 218.75,164.396 218.966,164.196C219.182,163.996 219.462,163.896 219.806,163.896C220.15,163.896 220.43,163.992 220.646,164.184C220.862,164.376 220.97,164.616 220.97,164.904C220.97,165.216 220.862,165.474 220.646,165.678C220.43,165.882 220.15,165.984 219.806,165.984Z" style="fill:rgb(0,132,139);fill-rule:nonzero;"/>
            <path d="M225.554,173.436C224.874,173.436 224.264,173.294 223.724,173.01C223.184,172.726 222.762,172.332 222.458,171.828C222.154,171.324 222.002,170.752 222.002,170.112C222.002,169.472 222.154,168.9 222.458,168.396C222.762,167.892 223.184,167.498 223.724,167.214C224.264,166.93 224.874,166.788 225.554,166.788C226.234,166.788 226.842,166.93 227.378,167.214C227.914,167.498 228.334,167.892 228.638,168.396C228.942,168.9 229.094,169.472 229.094,170.112C229.094,170.752 228.942,171.324 228.638,171.828C228.334,172.332 227.914,172.726 227.378,173.01C226.842,173.294 226.234,173.436 225.554,173.436ZM225.554,171.9C226.034,171.9 226.428,171.738 226.736,171.414C227.044,171.09 227.198,170.656 227.198,170.112C227.198,169.568 227.044,169.134 226.736,168.81C226.428,168.486 226.034,168.324 225.554,168.324C225.074,168.324 224.678,168.486 224.366,168.81C224.054,169.134 223.898,169.568 223.898,170.112C223.898,170.656 224.054,171.09 224.366,171.414C224.678,171.738 225.074,171.9 225.554,171.9Z" style="fill:rgb(0,132,139);fill-rule:nonzero;"/>
        </g>
        <g transform="matrix(0.978341,-0.207001,0.207001,0.978341,395.974,98.173)">
            <rect x="134.41" y="181.14" width="24.593" height="24.593" style="fill:rgb(0,132,139);stroke:rgb(0,132,139);stroke-width:7px;"/>
        </g>
        <g transform="matrix(1.10644,0,0,1.21477,111.906,-21.0885)">
            <circle cx="422.65" cy="228.965" r="7.092" style="fill:white;"/>
        </g>
    </g>
</svg>
